<?xml version="1.0" encoding="utf-8"?>
<!-- Generator: Adobe Illustrator 26.0.3, SVG Export Plug-In . SVG Version: 6.00 Build 0)  -->
<svg version="1.1" id="Слой_1" xmlns="http://www.w3.org/2000/svg" xmlns:xlink="http://www.w3.org/1999/xlink" x="0px" y="0px"
	 viewBox="0 0 1000 1000" style="enable-background:new 0 0 1000 1000;" xml:space="preserve">
<style type="text/css">
	.st0{fill:url(#SVGID_1_);}
	.st1{fill:#8C53FF;}
	.st2{fill:#B08FFF;}
	.st3{fill:#693DD3;}
	.st4{fill:#261375;}
	.st5{fill-rule:evenodd;clip-rule:evenodd;fill:#5033AA;}
	.st6{fill:url(#SVGID_00000107556991932768412110000001665436895603204002_);}
	.st7{fill:url(#SVGID_00000026160916042739497930000001073908667461369266_);}
	.st8{fill:url(#SVGID_00000132771594497622145430000000630238239950546312_);}
	.st9{fill:url(#SVGID_00000180341771407076776700000016406158699663171981_);}
	.st10{fill:url(#SVGID_00000021798984701424360150000006174787805290390421_);}
	.st11{fill:url(#SVGID_00000065796336260602722580000004160718833650151566_);}
	.st12{fill:url(#SVGID_00000004525528182178579460000011659505906403482284_);}
	.st13{fill:#FFFFFF;}
	.st14{fill:url(#SVGID_00000173880560349629432870000013566624084813466519_);}
</style>
<g>
	
		<linearGradient id="SVGID_1_" gradientUnits="userSpaceOnUse" x1="500" y1="227.8043" x2="500" y2="712.0689" gradientTransform="matrix(1 0 0 -1 0 1002)">
		<stop  offset="1.000000e-02" style="stop-color:#CEA360"/>
		<stop  offset="9.460190e-02" style="stop-color:#503619"/>
		<stop  offset="0.165" style="stop-color:#FECB78"/>
		<stop  offset="0.1823" style="stop-color:#FECB78"/>
		<stop  offset="0.2928" style="stop-color:#503619"/>
		<stop  offset="0.4854" style="stop-color:#E3BD75"/>
		<stop  offset="0.5426" style="stop-color:#846024"/>
		<stop  offset="0.63" style="stop-color:#E6C17D"/>
		<stop  offset="0.8" style="stop-color:#846024"/>
		<stop  offset="0.87" style="stop-color:#FECB78"/>
		<stop  offset="1" style="stop-color:#E6C17D"/>
	</linearGradient>
	<path class="st0" d="M816.1,510.6h-9.3c21.6-31.6,35.3-55.5,37-58.6l2.7-4.6c0.8-1.4,1.2-3,1.2-4.6s-0.4-3.2-1.2-4.6
		c-0.8-1.4-2-2.6-3.4-3.4c-1.4-0.8-3-1.2-4.6-1.2h-5.6c-46.1,0.4-92.1,3.8-137.7,10.1c6.3-45.7,9.7-91.8,10.1-137.9v-5.3
		c0-1.6-0.4-3.2-1.2-4.6c-0.8-1.4-2-2.6-3.4-3.4c-1.4-0.8-3-1.2-4.6-1.2c-1.6,0-3.2,0.4-4.6,1.2l-4.6,2.7
		c-39.8,23.4-78,49.4-114.4,77.7c-17.4-42.8-37.5-84.3-60.2-124.5l-2.7-4.6c-0.8-1.4-2-2.6-3.4-3.4c-1.4-0.8-3-1.2-4.6-1.2
		c-1.6,0-3.2,0.4-4.6,1.2c-1.4,0.8-2.6,2-3.4,3.4l-2.7,4.6c-22.7,40.2-42.8,81.7-60.2,124.5c-36.5-28.4-74.7-54.3-114.6-77.7
		l-4.6-2.7c-1.4-0.8-3-1.2-4.6-1.2c-1.6,0-3.2,0.4-4.6,1.2c-1.4,0.8-2.6,2-3.4,3.4c-0.8,1.4-1.2,3-1.2,4.6v5.3
		c0.4,46.1,3.7,92.2,10.1,137.9c-45.7-6.3-91.7-9.7-137.8-10.1h-5.3c-1.6,0-3.2,0.4-4.6,1.2c-1.4,0.8-2.6,2-3.4,3.4
		c-0.8,1.4-1.2,3-1.2,4.6s0.4,3.2,1.2,4.6l2.7,4.6c1.7,3.1,15.4,26.7,37,58.6h-12.3c-62.5,0-113.3,56.2-113.3,125.2
		c0,69,50.8,125.2,113.3,125.2h632.3c62.5,0,113.3-56.1,113.3-125.2S878.5,510.6,816.1,510.6z"/>
	<g>
		<path class="st1" d="M498.2,640.6c-111-192.1,331.6-191.5,331.6-191.5S609.2,832.7,498.2,640.6z"/>
		<path class="st2" d="M679.7,464.7c0,0,58.1-10.9,144.7-12.3c0,0-11.2,19.4-24.2,38.2l13.1-30.8
			C813.4,459.7,728.5,459.6,679.7,464.7z"/>
		<path class="st3" d="M778.9,523.5c0,0,15.6-21.8,19.4-27.8c0,0.1-64.4,34.1-134.2,41.6c-75,8.1-139.9-35.1-180.5,34.5
			c-10.6,18.3,3.5,57.8,22,80.5c26.4,32.4,60.9,54.3,110.4,32.2C700.1,647,778.9,523.5,778.9,523.5"/>
		<path class="st4" d="M575.4,697.5c-31.8,0-58.6-18.5-79.9-55.5c-21.3-37-23.9-69.4-8-96.9c56.9-98.5,330.7-99.4,342.4-99.2h5.3
			l-2.7,4.6c-5.8,10.1-143.3,246.8-257,246.8L575.4,697.5z M824.4,452.2c-39.5,0.6-280.7,8.1-331.6,96.1c-14.7,25.5-12,56,8,90.7
			c20,34.7,45.1,52.4,74.5,52.4C677.1,691.3,804.2,486.1,824.4,452.2z"/>
	</g>
	<g>
		<path class="st1" d="M503.8,638.9c-192.1-111,191.4-331.6,191.4-331.6S695.8,749.7,503.8,638.9z"/>
		<path class="st2" d="M573.7,395.7c37.5-30.6,77.3-58.2,119-82.5c0,0-0.2,46.1-5.6,94.4l-5.2-70.7
			C644.5,353.8,608.3,373.5,573.7,395.7z"/>
		<path class="st3" d="M683.2,444.9c0,0-9,83.5-42.1,149.3c-33.1,65.8-74.3,66.9-103,60.8c-28.7-6.1-81.1-34.9-87.5-81.7
			c0,0,16.1-28.6,79.7-48.2c59.3-18.2,109.5-15.6,152.9-93.1V444.9z"/>
		<path class="st4" d="M558.1,663.7c-18.1,0-37.7-6.1-58.8-18.2c-36.8-21.3-55.5-48.1-55.5-80c0-113.8,236.7-251.2,246.8-257
			l4.6-2.7v5.3c0,11.6-0.7,285.4-99.2,342.4C584.5,660.2,571.4,663.7,558.1,663.7z M502.3,640.1c34.7,20.1,65.2,22.7,90.7,8
			c87.9-50.9,95.6-291.9,96-331.5c-33.9,20.3-239,147.3-239,248.9c0,29.4,17.6,54.5,52.4,74.6H502.3z"/>
	</g>
	<g>
		<path class="st1" d="M501,642.1c-221.8,0,0-382.9,0-382.9S722.7,642.1,501,642.1z"/>
		<path class="st2" d="M490,286.1l11-20.4c0,0,65.9,111.9,88.6,222.9c0,0-46.5-141.2-88.6-207L490,286.1z"/>
		<path class="st3" d="M526.9,476.7c-69.8-64.6-62.7-138.2-62.7-138.2s-61.1,119.7-61.1,187.6s21.1,115.7,86.9,115.7
			s92.6-27.3,98-42.8S622.3,562.8,526.9,476.7z"/>
		<path class="st4" d="M501,645.2c-42.5,0-72.1-14-87.9-41.5c-56.8-98.5,79.4-336,85.3-346l2.7-4.6l2.7,4.6
			c5.8,10.1,142.1,247.5,85.3,346C573,631.2,543.5,645.2,501,645.2z M501,265.4c-19.2,34.5-133.3,247.1-82.6,335.1
			c14.7,25.5,42.5,38.4,82.6,38.4s67.9-12.9,82.6-38.4C634.3,512.5,520.1,300,501,265.4z"/>
	</g>
	<g>
		<path class="st1" d="M503.3,641.6C311.2,752.5,311.9,310,311.9,310S695.4,530.8,503.3,641.6z"/>
		<path class="st2" d="M315.4,326.7l-0.3-11.2c0,0,112.3,64.2,186.2,145.4c0,0-129.2-108.7-181.6-134.8L315.4,326.7z"/>
		<path class="st3" d="M554.2,542.2c-5.5-35.6-168.4-100-168.4-100c-20.9-6.3-39.6-18.1-54.3-34.2c-5.1-5.5-9.3-11.7-12.6-18.5
			c0,0,4.6,53.3,8.5,70.7c0,0,16.4,151.4,78.1,183.2c0,0,41.7,35.9,100.8-4.4C565.3,598.7,557,560,554.2,542.2z"/>
		<path class="st4" d="M446,662.5c-13.4,0.1-26.5-3.5-38.1-10.2c-98.4-56.9-99.2-330.7-99.1-342.4v-5.3l4.6,2.7
			c10.1,5.8,246.8,143.3,246.8,257c0,31.8-18.5,58.6-55.5,80C483.8,656.4,464.2,662.5,446,662.5z M315,315.4
			c0.6,39.5,8.1,280.7,96,331.5c25.5,14.7,56,12,90.7-8c34.7-20,52.4-45.2,52.4-74.6C554,462.7,348.8,335.7,315,315.4z"/>
	</g>
	<g>
		<path class="st1" d="M502.1,637.5C391.1,829.6,170.5,446,170.5,446S613.1,445.4,502.1,637.5z"/>
		<path class="st2" d="M181.4,457.9l-5.3-8.6c0,0,176.7,0.9,272.1,47.8c0,0-120.3-41.1-262.5-42.2L181.4,457.9z"/>
		<path class="st3" d="M497.9,531.9c0,0-95.5-36.1-301.1-49.7c0,0,20.1,30.8,25.4,37.7c0,0,98.7,158.6,198.2,168.4
			c0,0,18.9,6.6,42.9-8.8C502.1,654.4,547.5,595.1,497.9,531.9z"/>
		<path class="st4" d="M424.9,694.4c-113.8,0-251.2-236.8-257-246.8l-2.7-4.6h5.3c11.6,0,285.4,0.7,342.4,99.2
			c15.9,27.5,13.2,60.1-8.1,96.9C483.6,675.9,456.7,694.4,424.9,694.4z M176,449.1c20.2,33.9,147.3,239,248.9,239.1
			c29.4,0,54.5-17.6,74.5-52.4c20.1-34.8,22.8-65.3,8-90.7C456.6,457.3,215.4,449.8,176,449.1z"/>
	</g>
	<g>
		<path class="st5" d="M182.6,521.8h632.3c55.8,0,101,50.5,101,112.8c0,62.3-45.2,112.8-101,112.8H182.6c-55.8,0-101-50.5-101-112.8
			C81.6,572.3,126.7,521.8,182.6,521.8z"/>
		
			<linearGradient id="SVGID_00000092415301632115745370000004588051974634553481_" gradientUnits="userSpaceOnUse" x1="498.6895" y1="483.1392" x2="498.6895" y2="251.338" gradientTransform="matrix(1 0 0 -1 0 1002)">
			<stop  offset="0" style="stop-color:#E6C17D"/>
			<stop  offset="0.145" style="stop-color:#9E7736"/>
			<stop  offset="0.38" style="stop-color:#DFBA72"/>
			<stop  offset="0.56" style="stop-color:#9E7736"/>
			<stop  offset="0.77" style="stop-color:#DFBA72"/>
			<stop  offset="0.91" style="stop-color:#9E7736"/>
			<stop  offset="1" style="stop-color:#866225"/>
		</linearGradient>
		<path style="fill:url(#SVGID_00000092415301632115745370000004588051974634553481_);" d="M814.8,750.7H182.5
			c-57.4,0-104-52-104-115.9s46.7-115.9,104-115.9h632.3c57.4,0,104.1,52,104.1,115.9S872.2,750.7,814.8,750.7z M182.5,525
			c-54,0-97.9,49.4-97.9,109.7s44,109.7,97.9,109.7h632.3c54,0,97.9-49.4,97.9-109.7c0-60.4-44-109.9-98-109.9L182.5,525z"/>
	</g>
	<path class="st3" d="M267.4,525.3l-63.1,219.2h82L350,525.3H267.4z"/>
	<path class="st3" d="M421.7,525.3l-63.1,219.4h29.2l63.7-219.4H421.7z"/>
	<path class="st3" d="M487.5,525.4l-63.1,219.3h12.8L501,525.4H487.5z"/>
	<path class="st3" d="M657,524.9l-63.1,219.4h29.2l63.7-219.4H657z"/>
	<path class="st3" d="M711.7,525.4l-63.1,219.3h12.8l63.8-219.3H711.7z"/>
	
		<radialGradient id="SVGID_00000181797117281036824330000014036752607325268663_" cx="22.3053" cy="991.6514" r="2.4711" gradientTransform="matrix(28.0848 6.1038 6.1038 -28.0848 -5821.9453 28205.2695)" gradientUnits="userSpaceOnUse">
		<stop  offset="0" style="stop-color:#865429"/>
		<stop  offset="0.185" style="stop-color:#F1D08F"/>
		<stop  offset="0.39" style="stop-color:#865429"/>
		<stop  offset="0.59" style="stop-color:#F1D08F"/>
		<stop  offset="0.785" style="stop-color:#865429"/>
		<stop  offset="1" style="stop-color:#F2D291"/>
	</radialGradient>
	<path style="fill:url(#SVGID_00000181797117281036824330000014036752607325268663_);" d="M872.9,472.2l6.1,12.4l13.7,2l-9.9,9.7
		l2.3,13.7l-12.3-6.5l-12.2,6.5l2.3-13.7l-9.9-9.7l13.7-2L872.9,472.2z"/>
	
		<radialGradient id="SVGID_00000145058852198996837260000009144593727374404030_" cx="22.4433" cy="993.4516" r="2.4711" gradientTransform="matrix(28.0848 6.1038 6.1038 -28.0848 -5935.5332 28116.6465)" gradientUnits="userSpaceOnUse">
		<stop  offset="0" style="stop-color:#865429"/>
		<stop  offset="0.185" style="stop-color:#F1D08F"/>
		<stop  offset="0.39" style="stop-color:#865429"/>
		<stop  offset="0.59" style="stop-color:#F1D08F"/>
		<stop  offset="0.785" style="stop-color:#865429"/>
		<stop  offset="1" style="stop-color:#F2D291"/>
	</radialGradient>
	<path style="fill:url(#SVGID_00000145058852198996837260000009144593727374404030_);" d="M774.2,333.9l6.1,12.4l13.7,2l-9.9,9.7
		l2.3,13.7l-12.3-6.5l-12.2,6.5l2.3-13.7l-9.9-9.7l13.7-2L774.2,333.9z"/>
	
		<radialGradient id="SVGID_00000024691236553342498980000007951046493289653670_" cx="15.6919" cy="995.3239" r="2.4711" gradientTransform="matrix(28.0848 6.1038 6.1038 -28.0848 -5935.5332 28116.6465)" gradientUnits="userSpaceOnUse">
		<stop  offset="0" style="stop-color:#865429"/>
		<stop  offset="0.185" style="stop-color:#F1D08F"/>
		<stop  offset="0.39" style="stop-color:#865429"/>
		<stop  offset="0.59" style="stop-color:#F1D08F"/>
		<stop  offset="0.785" style="stop-color:#865429"/>
		<stop  offset="1" style="stop-color:#F2D291"/>
	</radialGradient>
	<path style="fill:url(#SVGID_00000024691236553342498980000007951046493289653670_);" d="M596,240.1l6.1,12.4l13.7,2l-9.9,9.7
		l2.3,13.7l-12.3-6.5l-12.2,6.5l2.3-13.7l-9.9-9.7l13.7-2L596,240.1z"/>
	
		<radialGradient id="SVGID_00000116957397469012929800000016430974107459502501_" cx="-6.3876" cy="1011.536" r="2.4711" gradientTransform="matrix(-28.0847 6.104 6.104 28.0847 -5939.2842 -28109.0371)" gradientUnits="userSpaceOnUse">
		<stop  offset="0" style="stop-color:#865429"/>
		<stop  offset="0.185" style="stop-color:#F1D08F"/>
		<stop  offset="0.39" style="stop-color:#865429"/>
		<stop  offset="0.59" style="stop-color:#F1D08F"/>
		<stop  offset="0.785" style="stop-color:#865429"/>
		<stop  offset="1" style="stop-color:#F2D291"/>
	</radialGradient>
	<path style="fill:url(#SVGID_00000116957397469012929800000016430974107459502501_);" d="M398.8,241.8l-6.1,12.4l-13.7,2l9.9,9.7
		l-2.3,13.7l12.3-6.5l12.2,6.5l-2.3-13.7l9.9-9.7l-13.7-2L398.8,241.8z"/>
	
		<radialGradient id="SVGID_00000059989119701691469350000008386752142882745764_" cx="-2.4027" cy="1012.5654" r="2.4711" gradientTransform="matrix(-28.0847 6.104 6.104 28.0847 -6014.3525 -28072.8516)" gradientUnits="userSpaceOnUse">
		<stop  offset="0" style="stop-color:#865429"/>
		<stop  offset="0.185" style="stop-color:#F1D08F"/>
		<stop  offset="0.39" style="stop-color:#865429"/>
		<stop  offset="0.59" style="stop-color:#F1D08F"/>
		<stop  offset="0.785" style="stop-color:#865429"/>
		<stop  offset="1" style="stop-color:#F2D291"/>
	</radialGradient>
	<path style="fill:url(#SVGID_00000059989119701691469350000008386752142882745764_);" d="M218.1,331.2l-6.1,12.4l-13.7,2l9.9,9.7
		l-2.3,13.7l12.3-6.5l12.2,6.5l-2.3-13.7l9.9-9.7l-13.7-2L218.1,331.2z"/>
	
		<radialGradient id="SVGID_00000057109883312521320620000013872097017344115843_" cx="0.2121" cy="1014.941" r="2.4711" gradientTransform="matrix(-28.0847 6.104 6.104 28.0847 -6049.6025 -28019.166)" gradientUnits="userSpaceOnUse">
		<stop  offset="0" style="stop-color:#865429"/>
		<stop  offset="0.185" style="stop-color:#F1D08F"/>
		<stop  offset="0.39" style="stop-color:#865429"/>
		<stop  offset="0.59" style="stop-color:#F1D08F"/>
		<stop  offset="0.785" style="stop-color:#865429"/>
		<stop  offset="1" style="stop-color:#F2D291"/>
	</radialGradient>
	<path style="fill:url(#SVGID_00000057109883312521320620000013872097017344115843_);" d="M124,467.6l-6.1,12.4l-13.7,2l9.9,9.7
		l-2.3,13.7l12.3-6.5l12.2,6.5l-2.3-13.7l9.9-9.7l-13.7-2L124,467.6z"/>
	<g>
		<path class="st13" d="M335,724.8c-2.8,1.1-5.8,1.7-8.8,1.6c-9.4,0-16.5-5.9-16.5-16.9c-0.1-2.3,0.2-4.6,1.1-6.8
			c0.8-2.2,2.1-4.2,3.7-5.8c1.6-1.7,3.6-2.9,5.8-3.8c2.2-0.8,4.5-1.2,6.8-1.1c2.7-0.1,5.4,0.4,7.9,1.5L334,697
			c-2.1-0.9-4.4-1.4-6.7-1.4c-7.8,0-13,5-13,13.7c0,8.1,4.7,13.5,12.8,13.5c2.4,0,4.8-0.4,7-1.4L335,724.8z"/>
		<path class="st13" d="M390.4,715.4l-3.5,10.6h-4.4l11.3-33.3h5.2l11.4,33.3h-4.6l-3.6-10.5L390.4,715.4z M401.2,712l-3.3-9.6
			c-0.7-2.2-1.2-4.1-1.7-6.1c-0.5,2-1,4-1.7,6l-3.3,9.6H401.2z"/>
		<path class="st13" d="M459.1,720.6c2.3,1.4,5,2.1,7.7,2.2c4.4,0,6.9-2.3,6.9-5.7c0-3.4-1.8-4.9-6.3-6.6c-5.4-1.9-8.8-4.7-8.8-9.4
			c0-5.2,4.3-9,10.8-9c2.5-0.1,5.1,0.5,7.4,1.6l-1.2,3.5c-1.9-1.1-4.1-1.6-6.3-1.6c-4.6,0-6.3,2.7-6.3,5c0,3.1,2,4.7,6.6,6.4
			c5.6,2.2,8.5,4.9,8.5,9.8c0,4.9-3.8,9.6-11.7,9.6c-3,0-5.9-0.7-8.5-2.1L459.1,720.6z"/>
		<path class="st13" d="M532.9,692.6V726h-4.3v-33.4H532.9z"/>
		<path class="st13" d="M584.9,726v-33.4h4.7l10.8,16.9c2.2,3.5,4.2,7.1,6,10.8c-0.4-4.4-0.5-8.5-0.5-13.7v-13.9h4.1V726h-4.4
			l-10.6-16.9c-2.3-3.6-4.4-7.3-6.2-11.1h-0.2c0.3,4.2,0.4,8.2,0.4,13.7V726H584.9z"/>
		<path class="st13" d="M690.3,708.9c0,11.5-7,17.5-15.5,17.5c-8.5,0-15-6.8-15-16.9c0-10.6,6.6-17.5,15.5-17.5
			C684.2,692,690.3,699.1,690.3,708.9z M664.5,709.4c0,7.1,3.8,13.5,10.8,13.5s10.8-6.3,10.8-13.8c0-6.6-3.4-13.5-10.6-13.5
			C668.2,695.6,664.5,702.1,664.5,709.4z"/>
	</g>
	
		<linearGradient id="SVGID_00000133514041788556056080000008492896172961864594_" gradientUnits="userSpaceOnUse" x1="498.6895" y1="431.752" x2="498.6895" y2="326.7615" gradientTransform="matrix(1 0 0 -1 0 1002)">
		<stop  offset="0.2177" style="stop-color:#FFE1A7"/>
		<stop  offset="0.4396" style="stop-color:#9F682F"/>
		<stop  offset="0.5727" style="stop-color:#E9C57E"/>
		<stop  offset="0.7312" style="stop-color:#AE7736"/>
		<stop  offset="0.8961" style="stop-color:#C28C44"/>
		<stop  offset="1" style="stop-color:#CC9A51"/>
	</linearGradient>
	<path style="fill:url(#SVGID_00000133514041788556056080000008492896172961864594_);" d="M267.2,673.3h-63.1V557.7H222v100.2h45.2
		V673.3z M301.6,616.9c0-18.3,5.1-33,15.4-44.3c10.3-11.3,24-16.9,41.3-17c16.3,0,29.4,5.5,39.2,16.4c9.8,10.9,14.8,25,14.8,42.2
		c0,18.2-5,32.9-15.1,44.1c-10.1,11.2-23.6,16.9-40.7,16.9c-7.4,0.3-14.8-1-21.6-3.8c-6.8-2.8-13-7.1-18.1-12.4
		C306.6,648.1,301.6,634.1,301.6,616.9z M320.4,615.6c-0.4,11.3,3,22.4,9.8,31.5c3.1,4,7.1,7.2,11.7,9.4c4.6,2.1,9.6,3.2,14.7,3
		c5.1,0.3,10.2-0.6,15-2.7c4.7-2,8.9-5.1,12.2-9.1c6.5-7.8,9.7-18.4,9.7-31.8c0-13.3-3.1-24.1-9.3-32.4c-3.2-4-7.3-7.1-11.9-9.2
		c-4.6-2.1-9.7-3-14.8-2.7c-5.1-0.2-10.3,0.8-14.9,3c-4.7,2.1-8.8,5.4-12,9.4C323.5,593,319.9,604.2,320.4,615.6z M529.8,573h-33.2
		v100.2h-18V573h-33.2v-15.4h84.4V573z M562.7,616.9c0-18.3,5.1-33,15.4-44.3s24.1-16.9,41.4-16.9c16.3,0,29.3,5.5,39.2,16.4
		c9.8,10.9,14.8,25,14.8,42.1c0,18.2-5,32.9-15.1,44.1c-10.1,11.2-23.6,16.9-40.7,16.9c-7.4,0.3-14.8-1-21.6-3.8
		c-6.8-2.8-13-7.1-18.1-12.4C567.8,648.1,562.7,634.1,562.7,616.9z M581.5,615.6c-0.4,11.3,3,22.4,9.8,31.5c3.1,4,7.1,7.2,11.7,9.4
		c4.6,2.1,9.6,3.2,14.7,3c5.1,0.3,10.3-0.6,15-2.7c4.7-2,8.9-5.1,12.2-9.1c6.5-7.8,9.7-18.4,9.7-31.8c0-13.3-3.1-24.1-9.3-32.4
		c-3.2-4-7.3-7.1-11.9-9.2c-4.6-2.1-9.7-3-14.8-2.7c-5.1-0.2-10.3,0.8-14.9,3c-4.7,2.1-8.8,5.4-12,9.4
		C584.7,593,581.1,604.2,581.5,615.6L581.5,615.6z M720.1,649.3c8.8,7.2,19.8,11,31.2,10.8c15.3,0,23-5.3,23-15.8
		c0-2.9-0.9-5.8-2.5-8.2c-1.8-2.6-4.1-4.7-6.8-6.4c-2.9-1.8-8.5-4.7-17-8.8c-10.4-5-17.7-10-21.8-15.1c-4.1-5.1-6.3-11.5-6.2-18.1
		c-0.2-4.6,0.8-9.1,2.9-13.3c2.1-4.1,5.1-7.6,8.9-10.3c8.9-6,19.5-9,30.2-8.6c11.6,0,20.4,1.4,26.3,4.3v18.5
		c-7.9-5.2-17.2-7.7-26.7-7.4c-5.7-0.3-11.5,1.1-16.4,3.9c-1.9,1.2-3.5,2.8-4.6,4.8c-1.1,2-1.6,4.2-1.6,6.5c-0.1,2,0.3,4,1.1,5.8
		c0.8,1.8,2,3.5,3.5,4.8c6,4.5,12.5,8.3,19.4,11.2c11.5,5.4,19.5,10.8,23.8,16.2c4.3,5.2,6.6,11.8,6.6,18.5
		c0.3,4.6-0.6,9.2-2.6,13.4c-2,4.2-5,7.8-8.7,10.5c-7.6,5.5-18,8.3-31.4,8.3c-5.5-0.1-11-0.7-16.4-1.8c-4.9-0.8-9.6-2.4-13.9-4.8
		L720.1,649.3z"/>
</g>
</svg>
